# xmcd CD database file
#
# Track frame offsets:
#	150
#	22336
#	51408
#	72968
#	88321
#	107861
#	137086
#	148371
#	175628
#
# Disc length: 2729 seconds
#
# Revision: 0
# Processed by: cddbd v1.5.1PL0 Copyright (c) Steve Scherf et al.
# Submitted via: CDex 1.51
#
DISCID=8e0aa709
DTITLE=Karl Berger Orchestra - No Man is an Island
DYEAR=1995
DGENRE=Jazz
TTITLE0=Movement 1
TTITLE1=Movement 2
TTITLE2=Movement 3
TTITLE3=Movement 4
TTITLE4=Movement 5
TTITLE5=Movement 6
TTITLE6=Movement 7
TTITLE7=Movement 8
TTITLE8=Movement 9
EXTD=YEAR: 1995
EXTT0=
EXTT1=
EXTT2=
EXTT3=
EXTT4=
EXTT5=
EXTT6=
EXTT7=
EXTT8=
PLAYORDER=
